<svg preserveAspectRatio="none" width="100%" height="100%" overflow="visible" style="display: block;" viewBox="0 0 60 60" fill="none" xmlns="http://www.w3.org/2000/svg">
<g id="GitHub 2">
<path id="Vector" d="M25.564 43.2102C18.1515 42.3102 12.929 36.9777 12.929 30.0702C12.929 27.2627 13.939 24.2302 15.624 22.2102C14.894 20.3577 15.0065 16.4252 15.849 14.7977C18.094 14.5177 21.1265 15.6977 22.924 17.3227C25.0565 16.6502 27.304 16.3127 30.0565 16.3127C32.8065 16.3127 35.054 16.6502 37.074 17.2677C38.814 15.6952 41.904 14.5177 44.149 14.7977C44.9365 16.3127 45.049 20.2452 44.3165 22.1527C46.1165 24.2877 47.069 27.1527 47.069 30.0702C47.069 36.9777 41.8465 42.2002 34.324 43.1552C36.2315 44.3902 37.524 47.0852 37.524 50.1727V56.0127C37.524 57.6977 38.9265 58.6527 40.6115 57.9777C50.7765 54.1027 58.749 43.9402 58.749 31.3627C58.749 15.4702 45.834 2.50024 29.944 2.50024C14.049 2.50024 1.24902 15.4702 1.24902 31.3627C1.24902 43.8277 9.16652 54.1627 19.8365 58.0352C21.3515 58.5977 22.8115 57.5852 22.8115 56.0702V51.5752C21.9572 51.9323 21.0424 52.1224 20.1165 52.1352C16.409 52.1352 14.219 50.1152 12.649 46.3527C12.0315 44.8352 11.3565 43.9377 10.064 43.7702C9.38902 43.7127 9.16652 43.4327 9.16652 43.0952C9.16652 42.4202 10.2915 41.9177 11.4115 41.9177C13.0415 41.9177 14.444 42.9277 15.904 45.0052C17.029 46.6327 18.2065 47.3627 19.6115 47.3627C21.014 47.3627 21.9115 46.8577 23.204 45.5652C24.159 44.6127 24.889 43.7727 25.564 43.2102Z" fill="var(--fill-0, black)"/>
</g>
</svg>
