<svg preserveAspectRatio="none" width="100%" height="100%" overflow="visible" style="display: block;" viewBox="0 0 225.445 263.581" fill="none" xmlns="http://www.w3.org/2000/svg">
<path id="Subtract" d="M131.792 5.89086e-05V50.0079C117.894 49.9946 103.807 53.5282 90.906 60.9766C51.7968 83.5566 38.3968 133.565 60.9763 172.675C83.5563 211.784 133.565 225.184 172.675 202.605C178.886 199.018 184.448 194.738 189.321 189.922L225.445 224.525C217.368 232.672 208.088 239.893 197.675 245.905L196.194 246.748C133.394 281.952 53.7783 260.206 17.6756 197.675L16.8338 196.194C-18.094 133.889 3.03527 55.031 64.4363 18.5362L65.906 17.6749C86.6957 5.67203 109.397 -0.0211274 131.792 5.89086e-05Z" fill="var(--fill-0, #07C160)"/>
</svg>
