<svg preserveAspectRatio="none" width="100%" height="100%" overflow="visible" style="display: block;" viewBox="0 0 132.998 56.5228" fill="none" xmlns="http://www.w3.org/2000/svg">
<g id="Group">
<path id="Vector" fill-rule="evenodd" clip-rule="evenodd" d="M41.452 51.5049H41.5756H41.452Z" fill="var(--fill-0, #905B40)"/>
<path id="Vector_2" fill-rule="evenodd" clip-rule="evenodd" d="M9.27417 46.401V46.6328V47.4807V47.7199V47.8431H9.14334H8.91076H5.12405C3.12531 47.93 1.61353 49.4084 1.61353 51.2853C1.61353 53.1767 3.15438 54.7275 5.10951 54.8145H8.91076H9.14334H9.27417V54.9377V55.1768V56.0319V56.2638V56.3943H9.14334H8.91076H5.09498C2.23859 56.2928 0 54.0536 0 51.2925C0 48.575 2.23859 46.372 5.10225 46.2705H8.91076H9.14334H9.27417V46.401Z" fill="var(--fill-0, #905B40)"/>
<path id="Vector_3" fill-rule="evenodd" clip-rule="evenodd" d="M20.2872 46.4722V46.8708V56.2047V56.2699V56.4004H20.1564H19.9238H19.0589H18.8191H18.6955V56.2699V56.038V51.7624H13.2299V56.038V56.2699V56.4004H13.099H12.8664H12.6847H11.987H11.7544H11.6309V56.2699V56.038V55.3568V46.8708V46.4722V46.3418H11.7544H11.987H12.8664H13.099H13.2299V46.4722V46.7041V50.2116H18.6955V46.7041V46.4722V46.3418H18.8191H19.0589H19.9238H20.1564H20.2872V46.4722Z" fill="var(--fill-0, #905B40)"/>
<path id="Vector_4" fill-rule="evenodd" clip-rule="evenodd" d="M31.5871 51.2834C31.5871 53.2907 29.9373 54.9213 27.9094 54.9213C25.8816 54.9213 24.2318 53.2907 24.2318 51.2834C24.2318 49.276 25.8816 47.6455 27.9094 47.6455C29.9373 47.6455 31.5871 49.276 31.5871 51.2834ZM33.2007 51.2834C33.2007 48.3919 30.8312 46.0439 27.9167 46.0439C25.0022 46.0439 22.6255 48.3919 22.6255 51.2834C22.6255 54.1748 24.9949 56.5228 27.9094 56.5228C30.8312 56.5228 33.2007 54.1748 33.2007 51.2834Z" fill="var(--fill-0, #905B40)"/>
<path id="Vector_5" fill-rule="evenodd" clip-rule="evenodd" d="M46.2967 46.4722V46.7041V56.038V56.2699V56.4004H46.1659H45.9333H45.1047H44.407C42.8225 56.4004 41.5433 55.6902 40.7729 54.4147C40.0097 55.6902 38.7305 56.4004 37.1461 56.4004H36.4483H35.6125H35.3799H35.2563V56.2699V56.038V46.7041V46.4722V46.3418H35.3799H35.6125H36.4483H36.6809H36.8117V46.4722V46.7041V54.7916H37.1461C39.4937 54.7916 39.9298 52.7335 39.9807 51.5088V46.9288V46.6969V46.5664H40.1042H40.3368H41.1944H41.427H41.5506V46.6969V46.9288V51.4943C41.6015 52.7262 42.0375 54.7916 44.3924 54.7916H44.7268V46.7041V46.4722V46.3418H44.8576H45.0902H45.9187H46.1513H46.2821V46.4722H46.2967Z" fill="var(--fill-0, #905B40)"/>
<path id="Vector_6" fill-rule="evenodd" clip-rule="evenodd" d="M63.1655 46.4664V46.6983V47.5317V47.7636V47.894H63.0347H62.8021H59.3061V56.0394V56.2713V56.4018H59.1826H58.9427H58.0778H57.8452H57.7144V56.2713V56.0394V47.894H54.2257H53.9931H53.8623V47.7636V47.5317V46.6983V46.4664V46.3359H53.9931H54.2257H58.0778H58.9427H62.8021H63.0347H63.1655V46.4664Z" fill="var(--fill-0, #905B40)"/>
<path id="Vector_7" fill-rule="evenodd" clip-rule="evenodd" d="M71.99 50.7123H66.2554C66.3862 48.7194 67.4401 47.5672 69.1627 47.5672C71.4231 47.5744 71.91 49.4803 71.99 50.7123ZM73.5817 50.8572C73.4727 47.8353 71.7792 45.9656 69.1627 45.9656C66.5243 45.9656 64.7509 47.8788 64.6491 50.85V56.0459V56.2778V56.4083H64.78H65.0125H65.8702H66.11H66.2336V56.2778V56.0459V52.2776H72.0045V56.0459V56.2778V56.4083H72.1353H72.3679H73.2256H73.4581H73.5817V56.2778V56.0459V50.8572V50.8572Z" fill="var(--fill-0, #905B40)"/>
<path id="Vector_8" fill-rule="evenodd" clip-rule="evenodd" d="M78.7556 46.4595V46.6914V56.0398V56.2717V56.4021H78.6248H78.3922H77.52H77.2874H77.1566V56.2717V56.0398V46.6914V46.4595V46.3291H77.2874H77.52H78.3922H78.6248H78.7556V46.4595Z" fill="var(--fill-0, #905B40)"/>
<path id="Vector_9" fill-rule="evenodd" clip-rule="evenodd" d="M97.0876 46.0888V46.3207V47.2121V47.444V47.5744H96.9568H96.7242H93.6716C92.0289 47.5744 91.0187 48.5817 90.7934 50.4079H96.7242H96.9568H97.0876V50.5384V50.7775V51.6036V51.8355V51.966H96.9568H96.7242H90.7425V56.0387V56.2706V56.401H90.6117H90.3791H89.5214H89.2888H89.158V56.2706V56.0387V50.85C89.267 47.8788 91.0405 45.9656 93.6716 45.9656H96.7242H96.9568H97.0876V46.0888Z" fill="var(--fill-0, #905B40)"/>
<path id="Vector_10" fill-rule="evenodd" clip-rule="evenodd" d="M108.062 51.2834C108.062 53.2907 106.412 54.9213 104.384 54.9213C102.356 54.9213 100.706 53.2907 100.706 51.2834C100.706 49.276 102.356 47.6455 104.384 47.6455C106.412 47.6455 108.062 49.276 108.062 51.2834ZM109.675 51.2834C109.675 48.3919 107.306 46.0439 104.391 46.0439C101.47 46.0439 99.1001 48.3919 99.1001 51.2834C99.1001 54.1748 101.477 56.5228 104.391 56.5228C107.299 56.5228 109.675 54.1748 109.675 51.2834Z" fill="var(--fill-0, #905B40)"/>
<path id="Vector_11" fill-rule="evenodd" clip-rule="evenodd" d="M120.311 51.2834C120.311 53.2907 118.668 54.9213 116.633 54.9213C114.605 54.9213 112.955 53.2907 112.955 51.2834C112.955 49.276 114.605 47.6455 116.633 47.6455C118.661 47.6455 120.311 49.276 120.311 51.2834ZM121.917 51.2834C121.917 48.3919 119.54 46.0439 116.633 46.0439C113.711 46.0439 111.342 48.3919 111.342 51.2834C111.342 54.1748 113.711 56.5228 116.633 56.5228C119.548 56.5228 121.917 54.1748 121.917 51.2834Z" fill="var(--fill-0, #905B40)"/>
<path id="Vector_12" fill-rule="evenodd" clip-rule="evenodd" d="M132.998 56.2747V56.4051H132.874H132.635H131.755H131.522H131.392V56.2747V56.0428C131.392 54.1296 129.16 51.8252 127.22 51.7092H127.191H125.512V56.0428V56.2747V56.4051H125.388H125.156H124.291H124.058H123.927V56.2747V56.0428V46.6147V46.3756V46.2451H124.058H124.291H125.156H125.388H125.512V46.3756V46.6147V50.0497H126.725H126.747C128.681 49.9482 130.832 48.5061 130.832 46.6147V46.3756V46.2451H130.963H131.195H132.082H132.322H132.446V46.3756V46.6147C132.446 48.3032 131.341 49.9048 129.553 50.8468C131.559 51.9701 132.998 54.1224 132.998 56.0428V56.2747Z" fill="var(--fill-0, #905B40)"/>
<path id="Vector_13" fill-rule="evenodd" clip-rule="evenodd" d="M5.11727 47.8487V47.7255V47.8487Z" fill="var(--fill-0, #905B40)"/>
<path id="Vector_14" fill-rule="evenodd" clip-rule="evenodd" d="M116.714 1.15377C116.939 1.04507 117.172 0.987091 117.397 0.987091H117.601H120.755H123.859H126.962H129.957H130.16C130.393 0.987091 130.618 1.04507 130.843 1.15377C131.403 1.42915 131.766 2.00889 131.766 2.63936C131.766 3.24809 131.432 3.80609 130.901 4.08872C130.662 4.21916 130.407 4.28438 130.153 4.28438H129.949H126.955H123.851H120.748H117.594H117.39C117.136 4.28438 116.888 4.21916 116.649 4.08872C116.118 3.79885 115.784 3.24809 115.784 2.63936C115.791 1.9944 116.147 1.42915 116.714 1.15377Z" fill="var(--fill-0, #905B40)"/>
<path id="Vector_15" fill-rule="evenodd" clip-rule="evenodd" d="M127.84 9.70149C127.949 9.85368 127.949 9.91165 127.949 9.91165V12.9408C127.949 13.2452 127.891 13.4626 127.789 13.564C127.717 13.6365 127.615 13.6655 127.462 13.6655H119.99C119.78 13.6655 119.504 13.6655 119.504 12.9408V9.91165C119.504 9.91165 119.511 9.85368 119.62 9.70149C119.649 9.66526 119.7 9.59279 119.903 9.59279H127.564C127.76 9.60004 127.818 9.67251 127.84 9.70149ZM130.26 7.45499C129.606 6.868 128.792 6.57812 127.826 6.57812H124.504H119.634C118.668 6.57812 117.854 6.87524 117.207 7.45499C116.553 8.05647 116.226 8.87536 116.226 9.87542V13.535C116.226 14.4554 116.502 15.2308 117.047 15.8395C117.599 16.4628 118.326 16.7744 119.22 16.7744H124.504H128.233C129.127 16.7744 129.861 16.4628 130.413 15.8395C130.958 15.2308 131.242 14.4554 131.242 13.535V9.87542C131.234 8.88261 130.907 8.07096 130.26 7.45499Z" fill="var(--fill-0, #905B40)"/>
<path id="Vector_16" fill-rule="evenodd" clip-rule="evenodd" d="M100.263 1.15377C100.488 1.04507 100.714 0.987091 100.946 0.987091H101.15H102.865H105.969H109.072H110.787H110.991C111.223 0.987091 111.456 1.04507 111.681 1.15377C112.241 1.42915 112.604 2.00889 112.604 2.63936C112.604 3.24809 112.27 3.80609 111.739 4.08872C111.5 4.21916 111.245 4.28438 110.998 4.28438H110.795H109.079H105.976H102.872H101.157H100.953C100.699 4.28438 100.452 4.21916 100.212 4.08872C99.6816 3.80609 99.3472 3.24809 99.3472 2.63936C99.3399 2.00889 99.7034 1.4219 100.263 1.15377Z" fill="var(--fill-0, #905B40)"/>
<path id="Vector_17" fill-rule="evenodd" clip-rule="evenodd" d="M9.37661 16.8822C8.49716 16.8822 7.77761 16.172 7.74127 15.2734V15.2662C7.74127 15.2517 7.73401 15.2299 7.73401 15.2009C7.73401 15.172 7.74127 15.1502 7.74127 15.1357C7.74127 15.1357 7.74127 15.1285 7.74127 15.1357C7.77761 14.2371 8.49716 13.5269 9.37661 13.5269H9.8127H14.2608H15.0385H16.732H16.7683V11.121V10.592H16.732H15.0385H14.2608H10.7939H10.3578H10.1979V10.5702C9.36934 10.4905 8.71521 9.78034 8.71521 8.90348C8.71521 7.97589 9.44929 7.22222 10.3578 7.22222H14.2608L14.4207 7.22947H14.7914H16.7247H16.7611V6.73669V6.27289C16.7611 5.33806 17.4806 4.5699 18.3891 4.52642C18.3891 4.52642 18.3964 4.52642 18.4037 4.52642H18.5418C18.549 4.52642 18.5563 4.52642 18.549 4.52642C19.4721 4.56265 20.1916 5.33081 20.1916 6.27289V6.73669V7.22222H20.228H22.2703H22.5392V7.21498H22.6991H26.6021C27.0382 7.21498 27.4525 7.3889 27.765 7.70776C28.0776 8.02662 28.252 8.44693 28.252 8.89623C28.252 9.34553 28.0776 9.76585 27.765 10.0847C27.4889 10.3673 27.14 10.5268 26.762 10.563V10.5847H26.6021H26.1733H22.6773H22.1904H20.2134H20.1771V11.1138V13.5197H20.2134H22.1904H22.6773H27.1255H27.5615C28.441 13.5197 29.1605 14.2299 29.1969 15.1212V15.1285C29.2041 15.143 29.2041 15.172 29.2041 15.1937C29.2041 15.2227 29.2041 15.2372 29.1969 15.2589V15.2662C29.1605 16.172 28.441 16.875 27.5615 16.875H27.1255H22.6773H18.4691H14.2535H9.80543H9.37661V16.8822Z" fill="var(--fill-0, #905B40)"/>
<path id="Vector_18" fill-rule="evenodd" clip-rule="evenodd" d="M23.2929 22.5021C23.3801 22.5891 23.3801 22.7195 23.3801 22.7195V26.1328C23.3801 26.8792 23.0821 26.8792 22.8859 26.8792H14.0478C13.8588 26.8792 13.5463 26.8792 13.5463 26.1328V22.7195C13.5463 22.7123 13.5536 22.5891 13.6481 22.4877C13.6626 22.4659 13.7498 22.3862 13.9606 22.3862H22.9804C23.1839 22.3862 23.2638 22.4732 23.2929 22.5021ZM23.6708 30.0461C24.5794 30.0461 25.3207 29.7272 25.8876 29.0895C26.4473 28.4663 26.738 27.6764 26.738 26.7343V22.6833C26.738 21.6615 26.3964 20.8354 25.735 20.2194C25.0809 19.6179 24.245 19.3136 23.2566 19.3136H18.6558H13.6844C12.6959 19.3136 11.8601 19.6179 11.1987 20.2194C10.53 20.8426 10.1957 21.6688 10.1957 22.6833V26.7343C10.1957 27.6764 10.4791 28.4663 11.0388 29.0967C11.6057 29.7272 12.3543 30.0461 13.2628 30.0461H18.6486H23.6708Z" fill="var(--fill-0, #905B40)"/>
<path id="Vector_19" fill-rule="evenodd" clip-rule="evenodd" d="M33.644 13.8196V20.0736V27.9581L33.6367 28.1176C33.6367 28.7988 33.6222 31.3859 33.6222 31.3859C33.6004 32.9294 33.1643 34.1324 32.3212 34.9585C31.4853 35.7702 30.3878 36.205 29.0505 36.1833C28.2728 36.176 27.3207 35.9586 26.0633 35.5818L25.9761 35.5528C25.7798 35.4948 25.6635 35.4513 25.4746 35.3789C24.8858 35.1325 24.566 34.4875 24.566 33.8498C24.566 33.4657 24.6896 33.1034 24.9294 32.7845C25.2565 32.3497 25.7435 32.1106 26.2668 32.1106C26.3395 32.1106 26.4194 32.1323 26.4921 32.1395L26.87 32.241C27.1971 32.3207 27.4806 32.3932 27.8076 32.4584C28.8979 32.6686 29.2758 32.7048 29.4066 32.7048C29.77 32.7048 30.2933 32.0526 30.2933 31.2337V4.46403L30.3006 4.20314C30.3079 3.86254 30.2425 3.75384 30.1698 3.67413C30.1116 3.6089 29.9953 3.57267 29.8282 3.57267H11.8395H6.90441H6.72271C6.56281 3.57267 6.43198 3.7321 6.43198 3.89153L6.39564 7.18882V10.0078L6.36657 21.7621V21.9868V22.1535L6.3593 22.3346C6.3375 24.1246 6.1994 25.7696 5.93775 27.3204C5.63975 29.0452 5.18913 30.7337 4.60041 32.3352C3.77911 34.56 3.40843 35.0672 3.17585 35.2629C2.81971 35.5673 2.42723 35.7195 2.02748 35.7195C1.55505 35.7195 1.14803 35.5455 0.813698 35.1977C0.486631 34.8716 0.304927 34.4223 0.304927 33.9005C0.304927 33.5382 0.421218 33.0961 0.69014 32.4656C2.23099 29.0597 2.99415 24.8348 2.97961 19.8997V10.1745H2.97234V10.0151V5.08V3.52194C2.97234 3.32628 2.99414 3.12337 3.03775 2.92046C3.35755 1.22471 4.81118 0 6.4974 0C6.53374 0 6.57735 0 6.61369 0.0072468H6.62095H6.66456C6.7009 0 6.73725 0 6.78812 0H11.8395H29.8282C29.8645 0 29.9009 0 29.9299 0.0072468C29.9445 0.0072468 29.959 0.0072468 29.9735 0.0072468C29.9881 0.0072468 30.0026 0.0072468 30.0172 0.0072468C30.0462 0 30.0826 0 30.1189 0C31.9941 0 33.5349 1.50733 33.6367 3.39875L33.644 3.55093V13.8196Z" fill="var(--fill-0, #905B40)"/>
<path id="Vector_20" fill-rule="evenodd" clip-rule="evenodd" d="M73.5277 24.63C76.1152 28.1737 78.5354 30.6593 80.6141 32.0652L81.7625 32.8768L81.8933 32.9928C82.2349 33.3406 82.344 33.7175 82.344 34.1595C82.344 34.9929 81.7334 35.7176 80.9194 35.8408C80.7813 35.877 80.556 35.8842 80.4324 35.8625C79.8946 35.7828 79.1532 35.5147 76.5876 33.2247C74.6252 31.4854 72.67 29.1665 70.7731 26.3475C68.9706 23.7024 67.5169 21.0211 66.434 18.3905C65.351 21.0211 63.8974 23.6951 62.0876 26.3475C61.3899 27.3838 60.6849 28.3548 59.9726 29.2534C58.7515 30.7897 57.5159 32.1232 56.2803 33.2247C53.7147 35.5074 52.9733 35.7755 52.4355 35.8625C52.3119 35.8842 52.0794 35.877 51.9485 35.8408C51.1418 35.7176 50.524 34.9929 50.524 34.1595C50.524 33.7175 50.6403 33.3406 50.9746 32.9928L51.1054 32.8768L52.2538 32.0652C53.2641 31.384 54.3761 30.4419 55.5317 29.2534C56.7455 27.9925 58.0174 26.4489 59.3402 24.63C61.8332 21.2167 63.4468 17.4701 64.428 13.238H53.6202H52.2756H52.0721C51.7377 13.238 51.4034 13.1293 51.1272 12.9191C50.7129 12.6148 50.4658 12.1148 50.4658 11.6002C50.4658 11.0785 50.7129 10.5857 51.1272 10.2741C51.4034 10.0639 51.7305 9.95521 52.0721 9.95521H52.2756H53.6202H64.6024V1.96924C64.6024 1.0489 65.4019 0.324219 66.4267 0.324219C67.4515 0.324219 68.251 1.0489 68.251 1.96924V9.95521H79.2332H80.5778H80.774C81.1156 9.95521 81.4354 10.0639 81.7189 10.2741C82.1332 10.5857 82.3803 11.0785 82.3803 11.6002C82.3803 12.122 82.1332 12.6148 81.7189 12.9191C81.4354 13.1293 81.1156 13.238 80.774 13.238H80.5778H79.2332H68.4036C69.3848 17.4701 71.0274 21.2095 73.5277 24.63Z" fill="var(--fill-0, #905B40)"/>
<path id="Vector_21" fill-rule="evenodd" clip-rule="evenodd" d="M102.472 28.9866C102.472 29.7765 101.745 30.4142 100.851 30.4142C99.9573 30.4142 99.2305 29.7765 99.2305 28.9866V13.935C99.2305 13.1524 99.9573 12.5146 100.851 12.5146C101.745 12.5146 102.472 13.1524 102.472 13.935V28.9866Z" fill="var(--fill-0, #905B40)"/>
<path id="Vector_22" fill-rule="evenodd" clip-rule="evenodd" d="M112.687 28.9866C112.687 29.7765 111.961 30.4142 111.067 30.4142C110.173 30.4142 109.446 29.7765 109.446 28.9866V13.935C109.446 13.1524 110.173 12.5146 111.067 12.5146C111.961 12.5146 112.687 13.1524 112.687 13.935V28.9866Z" fill="var(--fill-0, #905B40)"/>
<path id="Vector_23" fill-rule="evenodd" clip-rule="evenodd" d="M112.691 9.62214C112.451 9.75258 112.197 9.8178 111.942 9.8178H111.739H110.503H107.654V34.5584C107.654 35.5077 106.884 36.2686 105.946 36.2686C105.001 36.2686 104.238 35.5004 104.238 34.5584V9.8178H101.418H100.182H99.9861C99.7317 9.8178 99.4846 9.75258 99.2375 9.62214C98.7069 9.33951 98.3726 8.78151 98.3726 8.16553C98.3726 7.52781 98.7287 6.96256 99.2956 6.67994C99.5137 6.57124 99.7535 6.52051 99.9861 6.52051H100.182H101.418H105.961H110.503H111.739H111.942C112.175 6.52051 112.407 6.57848 112.633 6.67994C113.2 6.96256 113.548 7.52781 113.548 8.16553C113.556 8.78151 113.221 9.33226 112.691 9.62214Z" fill="var(--fill-0, #905B40)"/>
<path id="Vector_24" fill-rule="evenodd" clip-rule="evenodd" d="M122.021 21.8113H122.18V21.978V25.8405V25.9999H122.021H117.9H117.74V25.8405V22.7171C117.74 21.92 118.088 21.8185 118.386 21.8185H122.021V21.8113ZM117.9 28.732H117.74V28.8914V31.9423C117.74 32.7395 118.088 32.8409 118.386 32.8409H122.021H122.18V32.6815V28.8914V28.732H122.021H117.9V28.732ZM129.18 21.8113H125.546H125.386V21.978V25.8405V25.9999H125.546H129.667H129.819V25.8405V22.7171C129.819 21.92 129.478 21.8113 129.18 21.8113ZM125.546 28.732H125.386V28.8914V32.6815V32.8409H125.546H129.18C129.478 32.8409 129.819 32.7395 129.819 31.9423V28.8914V28.732H129.667H125.546V28.732ZM132.945 22.3258C132.945 21.246 132.625 20.4561 131.963 19.8474C131.324 19.2532 130.502 18.9561 129.536 18.9561H123.787H118.038C117.064 18.9561 116.25 19.2532 115.603 19.8474C114.949 20.4561 114.622 21.2678 114.622 22.3258V32.6018C114.622 33.4569 114.898 34.2395 115.443 34.8555C115.995 35.4715 116.729 35.7904 117.623 35.7904H123.787H129.943C130.837 35.7904 131.571 35.4787 132.123 34.8555C132.668 34.2468 132.945 33.4714 132.945 32.609V22.3258Z" fill="var(--fill-0, #905B40)"/>
</g>
</svg>
