<svg preserveAspectRatio="none" width="100%" height="100%" overflow="visible" style="display: block;" viewBox="0 0 63.3167 11.2786" fill="none" xmlns="http://www.w3.org/2000/svg">
<g id="&#231;&#188;&#150;&#231;&#187;&#132;">
<path id="&#232;&#183;&#175;&#229;&#190;&#132;" d="M5.86734 4.9981L3.93131 4.46471C2.86452 4.16838 2.37064 3.69425 2.37064 3.00281C2.37064 2.01504 3.29914 1.56067 4.22764 1.56067C5.31419 1.56067 6.08464 1.99529 6.47975 2.82501L6.53902 2.9633L8.09969 2.35089L8.04042 2.19284C7.52678 0.790213 6.14391 0 4.2474 0C2.09407 0 0.612415 1.2841 0.612415 3.10159C0.612415 4.6425 1.38287 5.51174 3.12134 6.00562L5.03761 6.51926C6.06489 6.83535 6.49951 7.28972 6.49951 8.06018C6.49951 9.22574 5.31419 9.62085 4.30666 9.62085C3.02257 9.62085 2.07431 9.00843 1.6792 7.94165L1.61994 7.7836L0 8.39602L0.0395107 8.55406C0.533394 10.2333 2.11382 11.221 4.2474 11.221C6.59828 11.221 8.25773 9.85791 8.25773 7.94165C8.25773 6.42048 7.44776 5.41296 5.86734 4.9981Z" fill="var(--fill-0, #FF0000)"/>
<path id="&#229;&#189;&#162;&#231;&#138;&#182;" fill-rule="evenodd" clip-rule="evenodd" d="M40.0439 6.29829C40.0439 4.0857 41.7823 3.05842 43.422 3.05842C45.4963 3.05842 46.8595 4.34252 46.8595 6.25878V7.99725C46.8595 10.2296 45.121 11.2569 43.4813 11.2569C41.407 11.2569 40.0439 10.0518 40.0439 8.1553V6.29829ZM43.4426 4.60236C42.3955 4.60236 41.7831 5.21478 41.7831 6.2223V8.13857C41.7831 9.12634 42.435 9.73875 43.4821 9.73875C44.5489 9.73875 45.1218 9.14609 45.1218 8.09906V6.16304C45.1218 5.19502 44.4896 4.60236 43.4426 4.60236Z" fill="var(--fill-0, #FF0000)"/>
<path id="&#232;&#183;&#175;&#229;&#190;&#132;_2" d="M18.0779 3.06445C17.1099 3.06445 16.2011 3.42005 15.5887 4.03246C14.9763 3.42005 14.0675 3.06445 13.0995 3.06445C11.045 3.06445 9.68186 4.44733 9.66211 4.48684V11.1641H11.3611L11.4006 5.17827C11.4006 5.17827 12.0723 4.58561 13.139 4.58561C14.1663 4.58561 14.7985 5.19803 14.7985 6.20555V11.1641H16.5172V6.26482V6.20555C16.5172 5.19803 17.1296 4.58561 18.1767 4.58561C19.2237 4.58561 19.8559 5.17827 19.8559 6.14629V11.1641H21.6141V6.26482C21.5153 4.34855 20.1127 3.06445 18.0779 3.06445Z" fill="var(--fill-0, #FF0000)"/>
<path id="&#232;&#183;&#175;&#229;&#190;&#132;_3" d="M34.4726 3.06445C32.3983 3.06445 31.0549 4.44733 31.0352 4.48684V11.1641H32.7539V5.17827C32.7539 5.17827 33.4256 4.58561 34.5121 4.58561H34.5516V3.08421L34.4726 3.06445V3.06445Z" fill="var(--fill-0, #FF0000)"/>
<path id="&#232;&#183;&#175;&#229;&#190;&#132;_4" d="M52.5292 3.14227C52.4699 3.12252 52.4106 3.12252 52.3514 3.12252L52.1933 3.10276C52.1143 3.10276 52.0155 3.08301 51.9365 3.08301H51.7587C49.7042 3.08301 48.341 4.46588 48.3213 4.50539V11.1827H50.04V5.19683C50.04 5.19683 50.6919 4.62392 51.739 4.60417C52.786 4.60417 53.3984 5.19683 53.3984 6.16484V11.1827H55.1764V6.28337C55.1369 4.64368 54.1491 3.4386 52.5292 3.14227Z" fill="var(--fill-0, #FF0000)"/>
<path id="&#229;&#189;&#162;&#231;&#138;&#182;_2" fill-rule="evenodd" clip-rule="evenodd" d="M23.1944 4.52218C23.787 3.59368 24.8538 3.04053 26.0984 3.04053C28.1727 3.04053 29.5358 4.34438 29.5753 6.2804V9.85612C29.5556 9.89563 28.2122 11.2785 26.1379 11.2785C25.7033 11.2785 25.2687 11.1995 24.8538 11.0612C23.8858 10.7451 23.1944 10.0932 22.898 9.22395L22.8783 9.16468C22.8388 9.08566 22.6017 8.27569 23.0363 7.52499C23.3919 6.89282 24.1229 6.4582 25.2094 6.24089C26.1379 6.06309 27.1059 5.86554 27.7381 5.72725C27.5998 4.97655 26.9874 4.56169 26.0984 4.56169C25.4267 4.56169 24.9131 4.81851 24.6563 5.31239L24.6365 5.3519L24.597 5.37166L23.1548 4.58144L23.1944 4.52218ZM27.1658 9.54046C27.5807 9.36266 27.8375 9.14535 27.8375 9.14535V7.30811C27.7841 7.31878 27.7264 7.33089 27.6656 7.34366C27.5012 7.37819 27.3137 7.41755 27.1263 7.44639C26.9778 7.47496 26.8243 7.50352 26.6682 7.53257C26.2846 7.60395 25.8855 7.67822 25.5064 7.76248C24.6766 7.94028 24.4593 8.21685 24.4396 8.4144C24.4001 8.69098 24.4791 8.96755 24.6766 9.18486C24.973 9.54046 25.5261 9.73801 26.1385 9.73801C26.5139 9.71826 26.83 9.65899 27.1658 9.54046Z" fill="var(--fill-0, #FF0000)"/>
<path id="&#229;&#189;&#162;&#231;&#138;&#182;_3" fill-rule="evenodd" clip-rule="evenodd" d="M63.2168 5.13668C63.2563 5.2157 63.4934 6.02567 63.0587 6.77637C62.7031 7.40854 61.9722 7.84316 60.8461 8.04071C59.9176 8.21851 58.9496 8.41606 58.3175 8.55435C58.4557 9.2853 59.0682 9.71991 59.9572 9.71991C60.6288 9.71991 61.1425 9.46309 61.3993 8.96921L61.419 8.9297L61.4586 8.90994L62.9007 9.70016L62.8612 9.75942C62.2685 10.6879 61.2017 11.2411 59.9572 11.2411C57.9224 11.2411 56.5197 9.97673 56.5197 8.04071V6.28248C56.5197 4.05013 58.278 3.02285 59.9176 3.02285H59.9572C60.3918 3.02285 60.8264 3.10188 61.2413 3.24016C62.2093 3.55625 62.9007 4.20817 63.197 5.07741L63.2168 5.13668ZM58.5291 6.9594C58.6612 6.93046 58.7989 6.90028 58.9504 6.87697C59.0523 6.85812 59.1555 6.83926 59.2595 6.82026C59.7004 6.73976 60.1548 6.65679 60.5704 6.56089C61.4001 6.38309 61.6174 6.10652 61.6371 5.90896C61.6767 5.63239 61.5976 5.35581 61.4001 5.1385C61.1038 4.78291 60.5506 4.58535 59.9382 4.58535C59.7999 4.58535 59.6616 4.60511 59.5233 4.62487C58.7331 4.7434 58.259 5.3163 58.259 6.20529V6.87697V7.01526C58.3481 6.99906 58.4372 6.97953 58.5291 6.9594Z" fill="var(--fill-0, #FF0000)"/>
<path id="&#232;&#183;&#175;&#229;&#190;&#132;_5" d="M40.8936 0.0186567H33.841V1.67811H36.4882V11.1607H38.2464V1.67811H40.8936V0.0186567Z" fill="var(--fill-0, #FF0000)"/>
</g>
</svg>
